<svg viewBox="0 0 210 297"><defs><path id="reuse-0" fill="none" d="M4.37561041 19.52823114c-.06005979-.19827192-.7532237-8.96295016-.71209625-9.00408777.02542494-.02543255 6.72217837-.0551174 14.881674-.06596885l14.83544684-.01971378-.04003141.34009188c-.0220226.18705257-.19900262 2.21423304-.39330641 4.50484746-.19430125 2.29061442-.36632619 4.20079347-.38227989 4.24484375-.02270763.06267815-.75540567.08009072-3.37009231.08009072h-3.34108744l.03914594-.27230896c.14421505-1.00324875.4494133-5.4297003.40198098-5.83018182-.08552787-.72215865-.56525777-1.36914107-1.30923351-1.76567476l-.38470542-.20504615H6.9527191l-.38470795.20504615c-.48863028.26043756-.8879929.64810385-1.1184158 1.08565844-.1769927.33609077-.18055488.36362156-.17293323 1.33629238.00667275.85189664.2664608 4.3492253.38432484 5.17390576l.0389176.27230896h-.65001688c-.4643572 0-.65694587-.02288524-.67427726-.08009072z"/></defs><path fill="#37474f" d="M29.09588416 50.7532735H7.87604203c-1.84528088 0-3.34499975-1.3840241-3.45967965-3.11386392L1.18680368 9.35129015c0-.34632317.11544106-.6921389.34632318-.92302102.23037467-.23012096.46125679-.34556201.80707252-.34556201H34.6314731c.34556202 0 .57644413.11544105.80757996.34556201.2306284.23088212.34556202.57669785.34556202.92302102L32.5555638 47.63915586c-.2308821 1.73009354-1.72983982 3.11411763-3.45967965 3.11411763M3.60878242 10.3892448l3.11386391 37.01902896c0 .57644413.57644413 1.03846207 1.15314198 1.03846207h21.10363993c.57669785 0 1.1533957-.46176422 1.1533957-1.03846207l3.23006612-37.01902896z"/><path fill="#f79548" d="M32.3246817 35.76090548l.92251358-13.83897233H3.49258021l.92251358 13.83897233z"/><path fill="#37474f" fill-opacity=".94117647" d="M33.4780774 38.06744315H3.49334136c-.57669785 0-1.15314198-.46176422-1.15314198-1.03846207L1.1870574 20.88397852c0-.34632317.11544106-.57669785.34556202-.92302102.23088211-.23037468.4612568-.34581574.80757996-.34581574H34.6314731c.34556202 0 .57644413.11544106.80757996.34581574.22961353.23088211.34556202.57644413.34556202.92302102l-1.15314198 16.14500256c0 .57669785-.57695156 1.03846207-1.1533957 1.03846207M4.531296 35.76090548H32.3246817l1.0374472-13.83897233H3.60878243z"/><path fill="#f37321" d="M33.24719528 21.92193315h-5.76647104l-1.03719349 13.83897233h5.88115095zM5.68443798 35.76090548L4.64673706 21.92193315H3.60878242L4.531296 35.76090548z"/><path fill="#edf1f9" d="M34.63147309 6.35286729c0-.34581574-.23088211-.57644413-.57669785-.57644413h-1.15314198c-1.6149062 0-2.8829818-1.26883675-2.8829818-2.88323552 0-.34581574-.23088211-.57669785-.57669785-.57669785H7.52971886c-.34581574 0-.57669785.23088211-.57669785.57669785 0 1.61439877-1.26858303 2.88323552-2.88323552 2.88323552H2.91664351c-.34581573 0-.57644413.23088211-.57644413.57644413v1.72983983H34.6314731z"/><path fill="#a8c1dd" d="M34.05452153 5.77642316h-1.15314198c-1.6149062 0-2.8829818-1.26883675-2.8829818-2.88323552 0-.34581574-.23088212-.57669785-.57669785-.57669785h-6.91961302c.34556202 0 .57644413.23088211.57644413.57669785 0 1.61439877 1.2680756 2.88323552 2.8829818 2.88323552h1.1533957c.34556202 0 .57644413.23088211.57644413.57644413v1.72983983h6.91961302V6.35286729c.00050743-.34581574-.23037468-.57644413-.57644413-.57644413M8.1064167 2.89318764c0-.34581574.23088212-.57669785.57669785-.57669785H7.52997258c-.34581574 0-.57669785.23088211-.57669785.57669785 0 1.61439877-1.26858304 2.88323552-2.88323552 2.88323552h1.1533957c1.61414505 0 2.8829818-1.26883675 2.8829818-2.88323552M4.0700392 5.77642316H2.91689724c-.34581574 0-.57644413.23088211-.57644413.57644413v1.72983983h1.15314198V6.35286729c-.00025372-.34581574.2306284-.57644413.57644413-.57644413"/><path fill="#37474f" d="M34.05452153 3.46963177h-1.15314198c-.34581574 0-.57669785-.23088211-.57669785-.57644413 0-1.61465249-1.2680756-2.88323552-2.8829818-2.88323552H7.52971886c-1.61439877 0-2.88323552 1.26858303-2.88323552 2.88323552 0 .34581573-.23088211.57644413-.57669785.57644413H2.91664351C1.30224474 3.46963177.033408 4.7382148.033408 6.35286729v2.88323552c0 .6921389.4612568 1.15314198 1.1533957 1.15314198h34.59755766c.69163147 0 1.1533957-.4612568 1.1533957-1.15314198V6.35286729c.00025371-1.61439877-1.2680756-2.88323552-2.88323552-2.88323552M6.953021 2.89318764c0-.34581574.23088211-.57669785.57669785-.57669785h21.91172732c.34581574 0 .57669785.23088211.57669785.57669785 0 .23088211 0 .34581573.1146799.57644413H6.83757996c.11544105-.2306284.11544105-.34581574.11544105-.57644413M34.6314731 8.08270712H2.34019939V6.35286729c0-.34581574.2308821-.57644413.57644412-.57644413h31.1376243c.34581573 0 .57669785.23088211.57669785.57644413v1.72983983z"/><path fill="#a0a0a0" d="M4.37606964 19.3360129c-.03520318-.26871887-.74105293-8.66286684-.74105293-8.81280067 0-.06018919 3.29819918-.0773455 14.87005378-.0773455h14.87005378l-.034031.1762011c-.0187243.09691214-.20026867 2.15846359-.40345 4.58122884l-.36942154 4.4050252H25.8672693l.03596686-.33638256c.19330669-1.80789066.45782401-5.5115239.4133348-5.78729356-.11972125-.74208302-.58763303-1.37238611-1.26714192-1.70690638l-.42777381-.2105924H6.93478133l-.3636241.1704595c-.7134029.33443147-1.18850754.9425572-1.3319995 1.70494262-.04967518.26393631-.01534986.90736163.15725608 2.9473624.12144145 1.43534334.23712862 2.74667255.25708089 2.91406462l.03627386.30434575H4.41174473zM7.3453151 48.29229091c-.31645058-.16690493-.55182348-.46985778-.59921013-.7712655-.01737959-.11059253-.19116531-2.14730006-.38617697-4.52601503-.19500912-2.37871244-.37160603-4.4618907-.39243363-4.62928276l-.03787228-.30434576H7.25992676l.01329476.2082379c.00730704.11453022.14607226 1.77902026.30834433 3.69886845.3165546 3.74517934.33705744 3.86871396.73275893 4.41496074.10451856.14428356.32703563.36183032.49448352.48343923.61272307.44498087.2732807.42546245 7.0652565.40627133l6.11789138-.0172781.30224751-.13963294c.58800854-.2716493 1.17285069-.94599252 1.32369536-1.52626777.06436283-.24759188.64865442-6.81768744.64865442-7.29382725v-.23476398h3.3638382c2.9217497 0 3.3638382.01240674 3.3638382.09449168 0 .4020774-.78185563 9.344101-.8329643 9.52655115-.07966194.28438334-.4223316.59957801-.75109504.6908754-.16444134.04566645-3.69447407.06732624-11.01224964.0675698l-10.77022429.00025372z"/><path fill="#a0a0a0" d="M4.39836118 19.59230473c-.0030446-.00880396-.01560357-.14576526-.02790375-.30434829-.02466125-.3179272-.07824113-.94642384-.12288256-1.44164313-.01588266-.17620111-.04430653-.5077808-.06316275-.73684123-.01885115-.22906297-.04866285-.5750563-.0662378-.76887803-.01758256-.19382173-.0472877-.53981507-.06602467-.76887803-.01874966-.22906043-.04701622-.4885567-.06284307-.57665725-.01583191-.08810056-.04728516-.46292879-.06990907-.83295162-.02263152-.3700203-.04995934-.77368089-.06073976-.89702268-.06587244-.7535637-.1121605-1.33402416-.18950347-2.37644675l-.02657174-.35814128 2.06257394-.0422083c1.13441769-.02321507 7.82526967-.04225396 14.86856446-.04231486l12.80598799-.00010656-.04282736.34276607c-.04548885.36409601-.07645243.66969767-.13081375 1.29109784-.01849594.21144235-.0468919.52860333-.06309932.70480444-.03175517.34521189-.08941988 1.0223739-.13094568 1.53775606-.01420813.1762011-.0404881.4789459-.05842332.67276764-.01793776.19382172-.04958891.56864995-.0703404.83294908-.04455263.567493-.07191343.89805276-.1246332 1.50571926-.07046979.8123067-.09272327 1.0830071-.1343125 1.6338639-.02260615.2995429-.05434102.56624727-.07050277.59267693-.01616175.02642966-1.52733084.04805392-3.35816002.04805392H25.8668735l.0334779-.24027216c.14155358-1.01596248.43360676-5.13397838.40556093-5.71852622-.03972695-.8280904-.50708562-1.5044938-1.32469754-1.91722222l-.39063477-.19719109H6.95352083l-.4455162.23411193c-.53573277.28151887-.96113433.73950272-1.15138373 1.23957054-.12229394.32144625-.1310015.44245385-.0991144 1.37757208.03075046.90185344.30267377 4.3288823.3952778 4.98168498l.03408428.24027216h-.64148692c-.35281831 0-.64397841-.00720555-.64702048-.01600952z"/><use xlink:href="#reuse-0"/><use xlink:href="#reuse-0"/><path fill="#bec5b7" d="M4.37561041 19.52823114c-.06005979-.19827192-.7532237-8.96295016-.71209625-9.00408777.02542494-.02543255 6.72217837-.0551174 14.881674-.06596885l14.83544684-.01971378-.04003141.34009188c-.0220226.18705257-.19900262 2.21423304-.39330641 4.50484746-.19430125 2.29061442-.36632619 4.20079347-.38227989 4.24484375-.02270763.06267815-.75540567.08009072-3.37009231.08009072h-3.34108744l.03914594-.27230896c.14421505-1.00324875.4494133-5.4297003.40198098-5.83018182-.08552787-.72215865-.56525777-1.36914107-1.30923351-1.76567476l-.38470542-.20504615H6.9527191l-.38470795.20504615c-.48863028.26043756-.8879929.64810385-1.1184158 1.08565844-.1769927.33609077-.18055488.36362156-.17293323 1.33629238.00667275.85189664.2664608 4.3492253.38432484 5.17390576l.0389176.27230896h-.65001688c-.4643572 0-.65694587-.02288524-.67427726-.08009072zM7.41533073 48.3319798c-.22181175-.15229847-.58896251-.46741196-.54459763-.46741196.02009436 0 .0015223-.0648728-.04119342-.1441643-.04274364-.07928899-.08290444-.20182903-.08924736-.27230897-.00634291-.07048247-.03069717-.3588111-.05412282-.64073338-.02341805-.28191975-.05432327-.5558322-.06865825-.60869405-.014335-.05285932-.04398685-.38443901-.06589274-.73684123-.02189575-.35240222-.0508854-.7560628-.0644009-.89702268-.01352309-.14095987-.04218799-.48695574-.06371838-.76887803-.02154054-.28192228-.05305722-.65674797-.07005623-.83294908-.01699901-.1762011-.04498142-.5077808-.06217833-.73684123-.0586339-.78094733-.13568257-1.7239942-.19107397-2.33866835-.02222558-.24668358-.04839898-.54942838-.05815185-.67277017-.00974272-.12333926-.04005678-.43329215-.06734146-.68878477l-.04960667-.46452974h.64778924c.62027367 0 .6490502.00611457.67746393.14416431.01631398.07929152.0758841.73523775.13235888 1.4576628.17508983 2.2396935.41512858 4.94157493.48669696 5.47825152.12459769.93433677.5954196 1.62972832 1.33997635 1.97911385.28633949.13436578.3313894.13542631 6.52199343.1537142l6.23366226.01841983.38525852-.20534046c.43318051-.23088211.93952528-.7466347 1.13755363-1.15868822.07259086-.15104511.16160733-.51970803.19781776-.81925093.09100561-.75285836.50413236-5.44616397.55695109-6.32722026l.043213-.72082156h3.056935c1.68131398 0 3.19110032.01839445 3.35508497.04086613l.29815.04086613-.03237678.3916268c-.0178109.21539526-.06337587.7952874-.1012659 1.28865203-.03789004.49336209-.07969493.99793845-.09290342 1.1212777-.01321863.1233418-.04222098.46933767-.06447446.76887803-.02225095.2995429-.05180132.64553624-.06565678.76887803-.01385293.1233418-.12768035 1.34630405-.25294278 2.71769559-.25391704 2.7799551-.25023561 2.7649985-.7505267 3.0511477l-.27547534.1575631-10.89243198.01656769c-10.2038654.01552745-10.90255526.00961586-11.05261087-.09341846z"/><path fill="none" d="M5.6853412 35.70669385c-.0000076-.02642966-.2306639-3.11875811-.51257097-6.87184072-.28190706-3.75308261-.51256336-6.83099742-.51257097-6.83980646-.00000761-.00880397 5.15971792-.01600952 11.4660573-.01600952h11.46606747l-.03132385.30434576c-.0472674.4592372-.98780756 13.1388515-.98780756 13.31682862v.1545464H16.12927326c-5.74415413 0-10.44392444-.02161666-10.44393205-.04805647z"/><path fill="#f1f8e9" d="M5.7191464 19.41901375c-.09384469-.2896378-.42630478-5.03949684-.39735318-5.6770131.02839596-.62528965.06844767-.77013646.3066901-1.10911453.33532455-.47710647.88789141-.87753217 1.3630062-.9877213.4678788-.10851205 17.09770081-.10851205 17.5655796 0 .47459214.11006735 1.02759032.5104829 1.36186957.98610766.37380828.53186105.3920023 1.11546252.13479455 4.3234553l-.20666232 2.57755014h-10.0456122c-7.95650713 0-10.053244-.0235449-10.08231231-.11326417zM9.7756817 47.17107156c-1.07538038-.1225299-1.7221167-.88656955-1.8807048-2.22182424-.04251022-.35791548-.59301944-6.67826256-.59301944-6.8083938 0-.01809 3.81254364-.03289436 8.4723206-.03289436s8.47232313.0164662 8.47232313.03656563c0 .08937675-.54934466 6.40993188-.60082376 6.91286162-.09893933.96660953-.69947639 1.76931306-1.55105334 2.07320974-.27135753.09683855-1.49227228.11962991-6.04860645.11290896-3.139743-.00464301-5.96143957-.03722784-6.27043595-.07243355z"/></svg>