<svg viewBox="0 0 420.197 420.197">
  <defs/>
  <g fill="#d5a982">
    <path d="M138.239 380.911c-32-4-64.8-40-79.2-87.2-8.8-26.4-10.4-54.4-4-81.6 5.6-21.6 16.8-36.8 31.2-44l4.8-2.4 4 4c31.2 31.2 28.8 63.2 25.6 97.6-3.2 32.8-5.6 67.2 24.8 100l15.2 16-22.4-2.4zM153.439 316.911c-4-19.2-4.8-39.2-1.6-59.2 2.4-31.2 4.8-60.8-18.4-89.6l-12.8-15.2 19.2 1.6c29.6 3.2 59.2 32.8 76 75.2l1.6 4.8-4 4-11.2 11.2c-16.8 19.2-28.8 41.6-35.2 66.4l-13.6.8zM239.839 411.311c-10.4 0-20-2.4-28-8l-4-3.2.8-4.8c9.6-52 42.4-68.8 74.4-85.6 28-14.4 54.4-28 66.4-63.2l6.4-18.4 8.8 17.6c5.6 13.6 7.2 28 4.8 42.4-5.6 27.2-17.6 52-36 72.8-28.8 31.2-64 50.4-93.6 50.4z"/>
    <path d="M171.039 364.111c-5.6-12.8-6.4-27.2-4-40.8 5.6-27.2 17.6-52 36-72.8 27.2-31.2 62.4-51.2 92-51.2 9.6 0 20 2.4 28 8l4.8 3.2-1.6 5.6c-9.6 43.2-38.4 57.6-68.8 73.6s-60 30.4-72 73.6l-5.6 21.6-8.8-20.8z"/>
  </g>
  <g fill="#301913">
    <path d="M128.639 268.111c3.2-36 6.4-72.8-32-108-2.4-1.6-5.6-2.4-8-1.6-20 6.4-35.2 24.8-41.6 51.2-6.4 28.8-4.8 57.6 4.8 85.6 16.8 54.4 56 93.6 93.6 93.6 5.6 0 10.4-.8 15.2-2.4 4-1.6 6.4-5.6 5.6-10.4-.8-1.6-1.6-2.4-2.4-4-40.8-32.8-38.4-68-35.2-104zm-61.6 22.4c-8-24.8-9.6-51.2-4-76.8 4.8-19.2 14.4-32.8 27.2-38.4 28.8 28 26.4 57.6 23.2 91.2s-5.6 70.4 26.4 106.4c-28.8-4-59.2-38.4-72.8-82.4z"/>
    <path d="M261.439 296.111c32-16.8 65.6-33.6 74.4-84 .8-2.4-.8-5.6-2.4-7.2-10.4-8.8-24-13.6-37.6-12.8-24 0-50.4 11.2-74.4 30.4-23.2-53.6-65.6-84-101.6-72.8-4 1.6-6.4 5.6-5.6 10.4.8 1.6 1.6 2.4 2.4 3.2 32 29.6 29.6 59.2 27.2 94.4-2.4 30.4-4.8 60.8 15.2 92 1.6 14.4 8 27.2 19.2 36.8 3.2 3.2 8.8 2.4 11.2-.8.8-.8 1.6-2.4 1.6-4 7.2-52.8 38.4-68.8 70.4-85.6zm-102.4-37.6c2.4-32 5.6-64.8-20-95.2 25.6 2.4 53.6 30.4 69.6 70.4-4 4-8 8-11.2 12-17.6 20-30.4 44-36.8 69.6-3.2-19.2-4-38.4-1.6-56.8zm19.2 102.4c-4.8-11.2-5.6-24-3.2-36 4.8-25.6 16.8-49.6 34.4-68.8 25.6-29.6 58.4-48 86.4-48 8.8 0 16.8 1.6 24 6.4-8.8 39.2-35.2 52.8-64.8 68s-63.2 32-76.8 78.4z"/>
    <path d="M349.439 224.111c-2.4.8-4.8 3.2-5.6 6.4-8 43.2-34.4 56.8-65.6 72.8-33.6 16.8-71.2 36-79.2 96.8 0 2.4.8 5.6 2.4 7.2 10.4 8.8 24 13.6 37.6 12.8 32 0 69.6-20.8 98.4-53.6 19.2-21.6 32.8-48 38.4-76.8 4-27.2-2.4-49.6-18.4-64-2.4-2.4-4.8-3.2-8-1.6zm10.4 62.4c-4.8 25.6-16.8 49.6-34.4 68.8-25.6 29.6-58.4 48-86.4 48-8.8 0-16.8-2.4-24-6.4 8.8-48 38.4-64 70.4-80 28-14.4 57.6-29.6 70.4-68 5.6 12 6.4 24.8 4 37.6zM138.239 125.711c2.4 3.2 8 4 11.2 1.6 3.2-2.4 4-8 1.6-11.2-14.4-19.2-6.4-30.4 4-44.8 12-16.8 26.4-38.4-4.8-68.8-3.2-3.2-8-3.2-11.2-.8-3.2 3.2-3.2 8-.8 11.2l.8.8c21.6 20.8 14.4 31.2 2.4 48-9.6 15.2-24 35.2-3.2 64zM208.639 149.711c2.4 3.2 8 4 11.2 1.6s4-8 1.6-11.2c-14.4-19.2-6.4-30.4 4-44.8 12-16.8 26.4-38.4-4.8-68.8-3.2-3.2-8.8-2.4-11.2.8-2.4 3.2-2.4 7.2 0 10.4 21.6 20.8 13.6 31.2 2.4 48-10.4 15.2-24.8 35.2-3.2 64zM278.239 173.711c2.4 3.2 8 4 11.2 1.6s4-8 1.6-11.2c-14.4-19.2-6.4-30.4 4-44.8 12-16.8 26.4-38.4-4.8-68.8-3.2-3.2-8.8-2.4-11.2.8-2.4 3.2-2.4 7.2 0 10.4 21.6 20.8 14.4 31.2 2.4 48-9.6 15.2-24 35.2-3.2 64z"/>
  </g>
</svg>