
<?xml version="1.0" encoding="utf-8"?>
<!-- Generator: Adobe Illustrator 19.0.0, SVG Export Plug-In . SVG Version: 6.00 Build 0)  -->
<svg version="1.1" id="Layer_1" xmlns="http://www.w3.org/2000/svg" xmlns:xlink="http://www.w3.org/1999/xlink" x="0px" y="0px"
	 viewBox="0 0 150 150" style="enable-background:new 0 0 150 150;" xml:space="preserve">
<style type="text/css">
	.st0{fill:#DD3131;}
	.st1{fill:#54AF5B;}
	.st2{fill:#EA6060;}
	.st3{fill:none;}
	.st4{fill:#7E0000;}
	.st5{fill:#49C155;}
</style>
<g id="XMLID_1_">
	<path id="XMLID_11_" class="st0" d="M96.4,63.2c2.9-3.2,6.7-4.2,7.9-4.4c2.2-0.5,5.3-1.2,8.3,0.5c0.5,0.3,2.8,1.6,3.7,4.2
		c0.8,2.2-0.3,3.3,0.7,4.9c0.9,1.5,2.9,2.4,4.7,2.2c1.8-0.2,2.9-1.6,4.4-3.4c1.4-1.8,2.7-4.2,2.7-4.2l0,0c0,0,3.5-0.1,6.4,1.2
		c1,0.5,2.6,1.2,3.4,3c0.5,1,0.2,1.4,0.7,3.4c0.4,1.8,0.9,2.3,1.2,3.4c0.4,1.1,0.6,2.5,0.2,5.9c-0.4,4.3-0.8,7.6-2.5,11.6
		c-0.7,1.6-2.5,4.1-6.1,9.1c-3.3,4.6-5,6.9-7.1,9.1c-1.7,1.8-1.9,1.8-5.9,5.7c-3.8,3.7-4.2,4.3-5.6,5.7c-6,5.6-12.6,8.3-15,9.1
		c-4.5,1.6-8.2,2-12,2.5c-5.5,0.6-9.8,0.4-13,0.2c-3.1-0.2-6.5-0.3-11-1.2c-1.4-0.3-6-1.2-11.8-3.4c-3.1-1.2-5.3-2-8.1-3.7
		c-4.9-2.9-7.9-6.1-10.8-9.1c-0.7-0.7-3.2-3.4-6.1-7.4c-2.2-3.1-2.5-3.8-5.2-7.9c-4.6-7-5.6-7.2-7.6-10.8c-2.7-4.8-3.6-9.1-4.2-11.6
		c-2.9-13.6,1.6-25.1,3.9-30.8c1.4-3.5,3.2-7.9,7.1-12.6c3.2-3.9,6.4-6.1,9.3-8.1c4.2-2.9,8.4-5.9,14.7-7.4
		c3.5-0.8,7.1-0.7,14.5-0.5c6.9,0.2,10.5,0.4,14.2,2c5.2,2.2,8.2,5.7,8.8,6.4c2.4,2.9,3.6,5.7,4.4,7.9c0.3,0.7,0.5,1.3,2.5,9.1
		c1.4,5.6,1.6,6.5,1.7,7.9c0.2,2.1,0.4,4.6-0.5,7.6c-0.3,1-1.1,3.3-3.9,6.9c-0.9,1.1-4.7,5.7-12.5,10.3c-5.2,3.1-7.8,4.6-11.5,4.7
		c-4.2,0.1-7.3-1.6-10.3-3.2c-3.9-2.1-8-4.3-10.3-9.1c-3.4-7.1-0.1-14.4,0.7-16.3c0.7-1.6,2.2-4.8,5.6-7.4c2.8-2.1,5.5-2.8,6.4-3
		c4.2-0.9,7.5,0.1,9.3,0.7c1.6,0.5,3.6,1.2,5.6,3c1.1,0.9,3.5,3,3.9,6.4c0.2,1.7-0.2,3-0.3,3.6c-0.7,2.5-2.2,4-2.9,4.6
		c-0.6,0.5-4.7,4.5-7.9,3c-1.9-1-3-3.8-2.2-4.9c0.7-1,2.4,0,4.2-1.2c1.1-0.8,2.2-2.3,2-3.9c-0.2-1.9-2-2.8-2.2-3
		c-1.4-0.8-2.1-0.1-4.9-0.2c-3.5-0.2-4.5-1.3-6.1-0.5c-1.2,0.6-1.7,1.8-2,2.5c-1.2,2.8-0.1,5.6,0.7,7.6c1,2.5,2.3,4,2.7,4.4
		c0.9,1,1.8,2,3.4,2.7c2.4,1,4.6,0.5,5.9,0.2c1.6-0.3,2.7-0.9,4.7-2c2.4-1.3,3.6-1.9,4.4-2.7c3.6-3.5,3.1-9.3,2.9-11.6
		c-0.1-1.5-0.3-3.1-1.2-4.9c-0.9-1.8-2.2-2.9-3.7-4.2c-1.2-1.1-2.4-2.1-4.2-3c-2.2-1-4-1.2-7.1-1.5c-2.5-0.2-4.5-0.4-7.1,0
		c-2,0.3-5.3,0.8-8.6,3c-1.5,1-2.4,1.9-3.9,3.4c-2,2-3.3,3.4-4.4,5.4c-1.3,2.4-1.5,4.5-2,8.4c-0.4,3.3-0.6,5-0.2,7.1
		c0.7,4.5,2.9,7.6,4.2,9.4c1.7,2.4,3.5,4,5.4,5.7c1.7,1.5,3.2,2.8,5.2,3.9c1.8,1,3.4,1.5,10.3,2.7c6.8,1.1,10.2,1.7,12.3,1.2
		c1.5-0.3,3.7-1.6,8.1-4.2c5.7-3.3,8.5-5,10.6-7.4c1.5-1.8,2.6-3.6,4.2-6.4C95.1,65.4,94.9,64.8,96.4,63.2z"/>
	<path id="XMLID_10_" class="st1" d="M139.6,24.4c-0.1-0.1-0.1-0.2-0.2-0.3"/>
	<path id="XMLID_9_" class="st1" d="M118.9,77.2c0.4,0.1,0.9,0.2,1.3,0c0.7-0.3,0.9-1.1,1.5-1.5c0.3-0.2,0.6-0.3,0.9-0.6
		c0.3-0.3,0.5-0.8,0.8-1.1c0.1-0.1,0.3-0.2,0.5-0.3c0.3-0.2,0.6-0.6,0.8-0.9c-0.3,1-1.2,1.6-1.8,2.4c-0.4,0.5-0.7,1-1.1,1.4
		s-0.9,0.8-1.5,0.9c-0.5,0.1-1.1,0-1.6,0.1"/>
	<path id="XMLID_8_" class="st2" d="M100,82.3c-2,3.3-5.6,5.4-9,7.3c-2,1.1-4,2.3-6.2,3c-2.1,0.7-4.2,1.1-6.4,1.4
		c-6,0.9-12.2,1.3-18.3,1.1c-2.9-0.1-5.8-0.3-8.6-1.3c-2.5-0.9-4.8-2.5-7-4c-0.6,1.2,0.9,2.4,2.1,3c3.6,1.7,7.3,3.4,11.2,3.9
		c1.7,0.2,3.4,0.2,5.1,0.2c2.9,0,5.8,0,8.7,0c4.7,0,9.4,0,14-1.1s9-3.3,11.9-7c1.5-1.9,2.5-4.3,3.1-6.7"/>
	<path id="XMLID_7_" class="st3" d="M75.1,54c0.1-0.3,0.1-0.7,0.1-1c0-0.3-0.1-0.7-0.1-1c-0.1-0.5,0-1,0-1.5c0-1.7-0.5-3.5-1.4-5
		c-0.1-0.2-0.2-0.4-0.4-0.5c-0.1-0.3-0.4-0.6-0.6-0.8c-0.2-0.2-0.4-0.5-0.6-0.7c-0.3-0.3-0.5-0.5-0.8-0.8c-0.5-0.5-1-1.1-1.6-1.5
		c-0.4-0.3-0.8-0.5-1.1-0.9c-0.1-0.1-0.2-0.3-0.3-0.4c-0.1-0.1-0.3-0.2-0.5-0.3c-0.4-0.2-0.8-0.4-1.2-0.6"/>
	<path id="XMLID_6_" class="st3" d="M66.3,39.1c-0.4-0.4-0.9-0.6-1.4-0.7c-1.2-0.4-2.5-0.7-3.7-0.8c-0.5-0.1-0.9-0.1-1.4-0.1
		c-0.7,0-1.4-0.1-2.1-0.1"/>
	<path id="XMLID_5_" class="st4" d="M135.1,90.5c-0.7,2.4-1.4,4.9-2.8,7c-1.1,1.7-2.5,3.1-3.9,4.5c-3.1,3-6.2,6.1-9.2,9.1
		c-2.3,2.3-4.6,4.5-6.9,6.8c-1.7,1.6-3.3,3.3-5.2,4.7c-2.8,2-6.1,3.4-9.3,4.7c-3.5,1.4-7.1,2.9-10.8,3.8c-1.8,0.4-3.7,0.7-5.5,0.9
		c-1.2,0.1-3.3-0.3-4,0.9c1.5,0.2,3.1,0.1,4.6,0c1.4-0.1,2.8-0.2,4.2-0.3c1.7-0.1,3.4-0.6,5.1-0.8c1.3-0.2,2.7-0.3,4-0.7
		c1.5-0.4,2.8-1.1,4.3-1.5c0.5-0.2,1-0.3,1.5-0.4c0.7-0.2,1.1-0.8,1.7-1.1c0.3-0.1,0.5-0.1,0.8-0.2c1.2-0.5,2.2-1.4,3.3-1.9
		c0.4-0.2,0.8-0.4,1.2-0.6c1.3-0.7,2.2-1.9,3.3-2.8c0.5-0.4,1.1-0.8,1.7-1.2c1.6-1,2.6-2.6,4.1-3.8c1.4-1.2,2.8-2.5,4-3.9
		c1.6-1.6,3.2-3.3,4.7-5c0.8-0.9,1.5-1.7,2.2-2.6c0.3-0.4,0.7-0.8,1-1.2c0.3-0.5,0.5-0.9,0.9-1.3c0,0,0.1-0.1,0.1-0.1
		c0.4-0.5,0.9-1.1,1.3-1.6c0.9-1.1,1.7-2.1,2.5-3.2c0.3-0.4,0.5-0.8,0.8-1.2c0.4-0.5,0.8-1,1.2-1.5c0.4-0.5,0.5-1.1,0.7-1.7
		c0.1-0.5,0.6-1.1,0.9-1.6c0.7-1.2,1.2-2.4,1.7-3.6c1.9-4.8,2.7-10.5,1.6-15.6c-2,1.9-2.3,4.6-3.1,7.1
		C137,83.9,135.9,87.2,135.1,90.5z"/>
	<path id="XMLID_4_" class="st5" d="M141.6,68.4c0.8,1.7,0.7,3.9-0.8,5.2c-1.3,1.2-3.3,1.4-5.1,1c-1.7-0.5-3.2-1.6-4.4-2.9
		c-0.7-0.7-1.5-1.6-2.6-1.6c-0.8,0-1.5,0.5-2.2,1c-0.9,0.7-1.7,1.4-2.4,2.2c-0.6,0.7-1.1,1.8-2,2.1c-0.4,1.5-2.3,2.4-4,2.1
		c-1.7-0.3-3-1.4-4.1-2.6c-1.5-1.8-2.6-3.8-4.1-5.6s-3.5-3.4-5.9-3.6c-1.8-0.2-3.5,0.4-5.2,1c-1,0.4-2.1,0.9-2.7,1.7
		c-0.2,0.3-0.4,0.6-0.7,0.8c-0.4,0.2-0.9,0.1-1.3-0.2c-0.4-0.3-0.9-0.5-1-0.9c-0.7-2.3-0.6-4.8,0.3-7c0.1-0.4,0.3-0.8,0.6-1
		c0.3-0.3,0.7-0.5,1.1-0.8c0.6-0.4,1-0.9,1.6-1.3c0.9-0.7,1.9-1.1,3-1.5c2.3-0.9,4.7-1.8,6.7-3.2c2-1.4,3.7-3.3,4.3-5.6
		c0.5-1.8,0.3-3.8,0.6-5.6c0.5-3.5,1-7.1,2.3-10.4c0.6-1.6,1.5-3.2,2.3-4.7c1.1-1.9,2.1-3.8,3.4-5.6c0.7-0.9,1.4-1.7,2.3-2.4
		c1.7-1.3,3.9-1.9,6.1-2c2.2-0.1,4.4,0.3,6.5,1c0.8,0.3,1.7,0.6,2.4,1c0.7,0.5,1.2,1.1,1.8,1.8c0.7,0.9,1.4,1.7,1.9,2.7
		c0.5,1,0.7,2.2,0.9,3.3c0.1,0.7,0.2,1.4-0.1,2c-0.3,0.6-0.9,0.9-1.5,1.3c-2.3,1.3-4.9,2.1-7.6,2.4c-0.6,0.1-1.2,0.1-1.8,0.4
		c-0.4,0.2-0.7,0.5-1,0.8c-1.1,1.3-1.8,2.9-1.9,4.5c-0.3,4.6-1.3,9.2-2,13.8c-0.1,0.4-0.1,0.7,0,1.1c0.1,0.4,0.4,0.7,0.7,1
		c1.2,1.1,2.8,2,4.4,1.8c2.8-0.4,5.8,1.6,7.5,3.7c0.6,0.8,1.1,1.7,1.5,2.6c0.9,2,1.9,4,2.3,6.2"/>
	<path id="XMLID_3_" class="st1" d="M141.8,27.5c0.1,0.4-0.3,0.8-0.5,1.1c-0.2,0.4-0.5,0.7-0.8,1c-0.6,0.6-1.3,1.1-2.1,1.5
		c-1.7,1-3.7,1.5-5.6,1.8c-1,0.2-2,0.3-2.9,0.9c-1,0.7-1.4,1.9-1.8,3.1c-1.3,3.9-2.1,7.9-2.5,11.9c-0.2,1.8-0.2,3.7,0.9,5.1
		c1.8,2.3,5.4,1.8,8.2,2.7c2.1,0.7,3.9,2.3,5,4.2s1.8,4.1,2.2,6.3c0.5,2.5,0.4,5.5-1.7,6.9c-2,1.4-4.8,0.4-6.9-0.8
		c-2.2-1.1-4.6-2.5-6.9-1.7c-3,1.1-4.3,5.4-7.5,5.8c-1.7,0.2-3.3-0.8-4.6-1.9c-2.5-2.2-4.4-5-7.1-6.9c-2.7-2-6.5-2.9-9.2-1
		c-0.7,0.5-1.3,1.1-2,1.4s-1.8,0.2-2.2-0.5c1.7-1.2,3.5-2.4,5.5-3.2c2-0.8,4.2-1.1,6.2-0.6c4,1.2,6.2,5.4,9,8.4
		c1.1,1.2,2.6,2.4,4.3,2.2c1.7-0.2,3-1.7,3.9-3.2c0.9-1.5,1.5-3.2,2.9-4.3c1.7-1.4,4.3-1.8,5.2-3.8c-3.2-2.2-6.6-4.6-7.9-8.3
		c-1-2.8-0.6-5.8-0.3-8.8c0.3-2.7,0.5-5.4,1.1-8.1c0.7-2.6,1.8-5.2,3.8-7.1c3.6-3.3,9.4-3.9,12.3-7.8c0.2,0,0.4-0.1,0.6-0.1
		c0,0,0.1,0,0.1,0c0,0,0,0,0.1,0.1c0.6,0.9,1,1.9,1.2,3C141.9,27.3,141.9,27.4,141.8,27.5"/>
	<path id="XMLID_2_" class="st4" d="M138.1,74.7c0.1,0.1,0.3,0.1,0.5,0.1c0,0,0.1,0,0.1,0c0,0,0.1-0.1,0-0.1
		C138.5,74.6,138.3,74.7,138.1,74.7c-0.3,0-0.5,0-0.7,0c-0.9-0.1-1.8-0.2-2.6-0.6c-0.1,0-0.6-0.4-0.7-0.3c-0.1,0.1,0.1,0.6,0.2,0.7
		c0.2,0.5,0.4,0.9,0.7,1.4c0.3,0.5,0.6,0.9,0.8,1.4c0.2,0.4,0.4,0.9,0.5,1.3c0.5,1.4,1,2.8,1.2,4.3c0.5-2.1,1.2-4,2.1-6
		c0.2-0.4,0.3-0.8,0.5-1.1c0.2-0.5,0.5-1.1,0.8-1.6c0.1-0.1,0.1-0.3,0.2-0.5c-0.3,0.2-0.5,0.5-0.8,0.6c-0.3,0.1-0.7,0.2-0.9,0.2
		c-0.2,0-0.3,0.1-0.4,0.2c-0.1,0-0.1,0.1-0.1,0.1c-0.1,0-0.2,0-0.2,0c-0.2,0-0.4,0-0.6,0c0,0,0,0-0.1,0"/>
</g>
</svg>
