<svg xmlns:xlink="http://www.w3.org/1999/xlink" viewBox="0 0 50 60"><defs/><defs><path id="a" fill="none" d="M4.3756104 19.528231c-.06006-.198272-.7532237-8.96295-.7120962-9.004088.025425-.02543 6.7221788-.05512 14.8816738-.06597l14.835447-.01971-.04003.340092c-.02202.187052-.199003 2.214233-.393307 4.504847-.194301 2.290614-.366326 4.200794-.38228 4.244844-.02271.06268-.755405.08009-3.370092.08009h-3.341087l.03915-.272309c.144216-1.003249.449414-5.429701.401981-5.830182-.08553-.722159-.565257-1.369141-1.309233-1.765675l-.384711-.205047H6.9527191l-.384708.205046c-.4886302.260438-.8879929.648104-1.1184158 1.085658-.1769927.336091-.1805548.363622-.1729332 1.336293.00667.851896.2664608 4.349225.3843249 5.173906l.038918.272309h-.6500173c-.4643572 0-.6569459-.02289-.6742773-.08009z"/></defs><path fill="#37474f" d="M35.062056 55.43745H13.842214c-1.84528 0-3.344999-1.384024-3.459679-3.113863l-3.2295594-38.28812c0-.346323.115441-.692139.3463232-.923021.2303746-.230121.4612567-.345562.8070725-.345562H40.597645c.345562 0 .576444.115441.80758.345562.230628.230882.345562.576698.345562.923021l-3.229051 38.287866c-.230882 1.730093-1.72984 3.114117-3.45968 3.114117M9.5749544 15.073422l3.1138646 37.019029c0 .576444.576444 1.038462 1.153142 1.038462H34.9456c.576698 0 1.153396-.461764 1.153396-1.038462l3.230066-37.019029z"/><path fill="#f79548" d="M38.290854 40.445082l.922513-13.838972H9.4587524l.9225136 13.838972z"/><path fill="#37474f" fill-opacity=".94117647" d="M39.444249 42.75162H9.4595134c-.576698 0-1.1531421-.461764-1.1531421-1.038462l-1.153142-16.145002c0-.346324.1154411-.576698.345562-.923022.2308821-.230374.4612568-.345815.80758-.345815H40.597645c.345562 0 .576444.115441.80758.345815.229614.230883.345562.576445.345562.923022l-1.153142 16.145002c0 .576698-.576951 1.038462-1.153396 1.038462m-28.946781-2.306538h27.793386l1.037447-13.838972H9.5749544z"/><path fill="#f37321" d="M39.213367 26.60611h-5.766471l-1.037193 13.838972h5.881151zM11.65061 40.445082l-1.0377-13.838972H9.5749544l.9225136 13.838972z"/><path fill="#edf1f9" d="M40.597645 11.037044c0-.345816-.230882-.576444-.576698-.576444h-1.153142c-1.614906 0-2.882982-1.2688367-2.882982-2.8832355 0-.3458157-.230882-.5766978-.576697-.5766978H13.495891c-.345815 0-.576698.2308821-.576698.5766978 0 1.6143988-1.268583 2.8832355-2.883235 2.8832355H8.8828154c-.3458157 0-.5764441.230882-.5764441.576444v1.72984H40.597645z"/><path fill="#a8c1dd" d="M40.020694 10.4606h-1.153142c-1.614907 0-2.882982-1.2688367-2.882982-2.8832355 0-.3458157-.230882-.5766978-.576698-.5766978h-6.919613c.345562 0 .576444.2308821.576444.5766978 0 1.6143988 1.268076 2.8832355 2.882982 2.8832355h1.153396c.345562 0 .576444.230882.576444.576444v1.72984h6.919613v-1.72984c.000507-.345816-.230375-.576444-.576444-.576444M14.072589 7.5773645c0-.3458157.230882-.5766978.576698-.5766978h-1.153142c-.345816 0-.576698.2308821-.576698.5766978 0 1.6143988-1.268583 2.8832355-2.883235 2.8832355h1.153395c1.614145 0 2.882982-1.2688367 2.882982-2.8832355M10.036212 10.4606H8.8830691c-.3458157 0-.5764441.230882-.5764441.576444v1.72984h1.1531424v-1.72984c-.000254-.345816.2306282-.576444.5764446-.576444"/><path fill="#37474f" d="M40.020694 8.1538087h-1.153142c-.345816 0-.576698-.2308821-.576698-.5764442 0-1.6146525-1.268076-2.8832355-2.882982-2.8832355H13.495891c-1.614398 0-2.883235 1.268583-2.883235 2.8832355 0 .3458158-.230882.5764442-.576698.5764442H8.8828154c-1.6143988 0-2.8832355 1.268583-2.8832355 2.8832353v2.883236c0 .692139.4612568 1.153142 1.1533957 1.153142H41.750533c.691632 0 1.153396-.461257 1.153396-1.153142v-2.883236c.000254-1.6143986-1.268076-2.8832353-2.883235-2.8832353m-27.101501-.5764442c0-.3458157.230883-.5766978.576698-.5766978h21.911727c.345816 0 .576698.2308821.576698.5766978 0 .2308822 0 .3458158.11468.5764442H12.803752c.115441-.2306284.115441-.3458158.115441-.5764442m27.678452 5.1895195H8.3063713v-1.72984c0-.345816.2308821-.576444.5764441-.576444H40.02044c.345816 0 .576698.230882.576698.576444v1.72984z"/><path fill="#a0a0a0" d="M10.342242 24.02019c-.0352-.268719-.7410536-8.662867-.7410536-8.812801 0-.06019 3.2981996-.07734 14.8700536-.07734h14.870054l-.03403.176201c-.01872.09691-.200268 2.158463-.40345 4.581229l-.369421 4.405025h-6.700953l.03597-.336383c.193307-1.80789.457824-5.511524.413335-5.787293-.119725-.742088-.587637-1.372391-1.267146-1.706912l-.427774-.210592H12.900954l-.363624.170459c-.713403.334432-1.188508.942558-1.332 1.704943-.04967.263936-.01535.907362.157256 2.947362.121442 1.435344.237129 2.746673.257081 2.914065l.03627.304346h-1.278024zm2.969246 28.956278c-.316451-.166905-.551824-.469858-.599211-.771266-.01738-.110592-.191165-2.1473-.386177-4.526015-.195009-2.378712-.371606-4.46189-.392433-4.629282l-.03787-.304346h1.330305l.01329.208238c.0073.11453.146072 1.77902.308344 3.698868.316554 3.74518.337057 3.868714.732759 4.414961.104518.144284.327035.36183.494483.483439.612723.444981.273281.425463 7.065257.406272l6.117891-.01728.302248-.139633c.588008-.271649 1.17285-.945992 1.323695-1.526267.06436-.247592.648654-6.817688.648654-7.293828v-.234764h3.363839c2.921749 0 3.363838.01241 3.363838.09449 0 .402078-.781856 9.344101-.832964 9.526551-.07966.284384-.422332.599578-.751095.690876-.164442.04567-3.694475.06733-11.01225.06757l-10.770224.000253z"/><path fill="#a0a0a0" d="M10.364534 24.276482c-.003-.0088-.0156-.145766-.0279-.304349-.02466-.317927-.07824-.946423-.122883-1.441643-.01588-.176201-.04431-.50778-.06316-.736841-.01885-.229063-.04866-.575056-.06624-.768878-.01758-.193822-.04729-.539815-.06602-.768878-.01875-.22906-.04702-.488557-.06284-.576657-.01583-.0881-.04729-.462929-.06991-.832952-.02263-.37002-.04996-.773681-.06074-.897023-.06587-.753563-.11216-1.334024-.1895032-2.376446l-.02657-.358142 2.0625746-.04221c1.134418-.02322 7.825269-.04225 14.868564-.04232l12.805988-.000106-.04283.342766c-.04549.364096-.07645.669697-.130814 1.291098-.0185.211442-.04689.528603-.0631.704804-.03176.345212-.08942 1.022374-.130946 1.537756-.01421.176201-.04049.478946-.05842.672768-.01794.193821-.04959.56865-.07034.832949-.04455.567493-.07191.898053-.124633 1.505719-.07047.812307-.09272 1.083007-.134313 1.633864-.02261.299543-.05434.566247-.0705.592677-.01616.02643-1.527331.04805-3.35816.04805H31.83306l.03348-.240272c.141554-1.015963.433607-5.133979.405561-5.718527-.03973-.82809-.507085-1.504493-1.324697-1.917222l-.390639-.19718H12.919693l-.445516.234112c-.535733.281519-.961134.739503-1.151384 1.239571-.122294.321446-.131001.442453-.09911 1.377572.03075.901853.302674 4.328882.395278 4.981685l.03408.240272h-.641487c-.352818 0-.643978-.0072-.64702-.01601z"/><use width="100%" height="100%" transform="translate(5.9661719 4.6841768)" xlink:href="#a"/><use width="100%" height="100%" transform="translate(5.9661719 4.6841768)" xlink:href="#a"/><path fill="#bec5b7" d="M10.341783 24.212408c-.06006-.198272-.7532246-8.96295-.7120966-9.004088.02543-.02543 6.7221786-.05512 14.8816736-.06597l14.835447-.01971-.04003.340092c-.02202.187052-.199003 2.214233-.393307 4.504847-.194301 2.290614-.366326 4.200794-.38228 4.244844-.02271.06268-.755405.08009-3.370092.08009h-3.341087l.03915-.272309c.144216-1.003249.449414-5.429701.401981-5.830182-.08553-.722159-.565257-1.369141-1.309233-1.765675l-.384711-.205047H12.918892l-.384708.205046c-.488631.260438-.887993.648104-1.118416 1.085658-.176993.336091-.180555.363622-.172933 1.336293.0067.851896.26646 4.349225.384324 5.173906l.03892.272309h-.650017c-.464357 0-.656946-.02289-.674277-.08009zm3.03972 28.803749c-.221812-.152299-.588962-.467412-.544597-.467412.02009 0 .0015-.06487-.04119-.144164-.04274-.07929-.0829-.201829-.08925-.272309-.0063-.07048-.0307-.358812-.05412-.640734-.02342-.28192-.05432-.555832-.06866-.608694-.01434-.05286-.04399-.384439-.06589-.736841-.0219-.352402-.05088-.756063-.0644-.897023-.01352-.14096-.04219-.486956-.06372-.768878-.02154-.281922-.05306-.656748-.07006-.832949-.017-.176201-.04498-.507781-.06218-.736841-.05863-.780947-.135682-1.723994-.191074-2.338668-.02223-.246684-.0484-.549429-.05815-.672771-.0097-.123339-.04006-.433292-.06734-.688784l-.04961-.46453h.647789c.620274 0 .649051.0061.677464.144164.01631.07929.07588.735238.132359 1.457663.17509 2.239693.415129 4.941575.486697 5.478251.124598.934337.59542 1.629729 1.339977 1.979114.286339.134366.331389.135427 6.521993.153715l6.233662.01842.385258-.20534c.433181-.230882.939526-.746635 1.137554-1.158688.07259-.151045.161607-.519708.197818-.819251.091-.752859.504132-5.446164.556951-6.327221l.04321-.720821h3.056935c1.681314 0 3.1911.01839 3.355085.04087l.29815.04087-.03238.391627c-.01781.215395-.06338.795287-.101266 1.288652-.03789.493362-.07969.997938-.0929 1.121278-.01322.123342-.04222.469337-.06447.768878-.02225.299543-.0518.645536-.06566.768878-.01385.123342-.12768 1.346304-.252942 2.717695-.253917 2.779955-.250236 2.764999-.750527 3.051148l-.275475.157563-10.892432.01657c-10.203865.01553-10.902555.0096-11.052611-.09342z"/><path fill="none" d="M11.651514 40.390871c-.000008-.02643-.230664-3.118758-.512571-6.871841-.281907-3.753082-.512564-6.830997-.512571-6.839806-.000008-.0088 5.159718-.01601 11.466057-.01601h11.466067l-.03132.304346c-.04727.459237-.987807 13.138851-.987807 13.316829v.154546h-10.44392c-5.744154 0-10.443924-.02162-10.443931-.04806z"/><path fill="#f1f8e9" d="M11.685319 24.103191c-.09384-.289638-.426305-5.039497-.397353-5.677013.0284-.62529.06845-.770137.30669-1.109115.335324-.477106.887891-.877532 1.363006-.987721.467879-.108512 17.0977-.108512 17.565579 0 .474592.110067 1.02759.510483 1.36187.986107.373808.531862.392002 1.115463.134794 4.323456l-.206662 2.57755H21.767631c-7.956507 0-10.053244-.02355-10.082312-.113264zm4.056535 27.752058c-1.07538-.12253-1.722117-.88657-1.880705-2.221825-.04251-.357915-.593019-6.678262-.593019-6.808393 0-.01809 3.812543-.03289 8.47232-.03289s8.472323.01647 8.472323.03657c0 .08938-.549344 6.409932-.600824 6.912861-.09894.96661-.699476 1.769313-1.551053 2.07321-.271357.09684-1.492272.11963-6.048606.112909-3.139743-.0046-5.96144-.03723-6.270436-.07243z"/></svg>